# Blender v2.79 (sub 0) OBJ File: 'arrow.blend'
# www.blender.org
mtllib arrow.mtl
o Cube_Cube.001
v -5.000000 -0.117685 -2.000000
v -5.000000 0.117685 -2.000000
v 0.332769 -0.117685 -1.060504
v 0.332769 0.117685 -1.060504
v 0.356800 -0.117685 -3.460504
v 0.356800 0.117685 -3.460504
v 4.993273 -0.117685 -0.060504
v 4.993273 0.117685 -0.060504
v -5.000000 -0.117685 2.000000
v -5.000000 0.117685 2.000000
v 0.332769 -0.117685 1.060503
v 0.332769 0.117685 1.060503
v 0.332769 -0.117685 -0.000000
v 0.332769 0.117685 -0.000000
v -5.000000 -0.117685 0.000000
v -5.000000 0.117685 0.000000
v 0.356801 -0.117685 3.460503
v 0.356801 0.117685 3.460503
v 0.393273 -0.117685 -0.000000
v 0.393273 0.117685 -0.000000
v 4.993273 -0.117685 0.060503
v 4.993273 0.117685 0.060503
v 4.993273 -0.117685 -0.000001
v 4.993273 0.117685 -0.000001
vn 0.1735 0.0000 -0.9848
vn -1.0000 0.0000 0.0000
vn 0.0000 1.0000 0.0000
vn 0.0000 -1.0000 0.0000
vn -0.9999 0.0000 -0.0100
vn 1.0000 0.0000 0.0000
vn 0.5914 0.0000 -0.8064
vn 0.1735 0.0000 0.9848
vn -0.0000 0.0000 -1.0000
vn -0.9999 0.0000 0.0100
vn 0.5914 0.0000 0.8064
usemtl None
s off
f 1//1 2//1 4//1 3//1
f 15//2 16//2 2//2 1//2
f 14//3 4//3 2//3 16//3
f 3//4 13//4 15//4 1//4
f 3//5 4//5 6//5 5//5
f 13//4 3//4 5//4 19//4
f 4//3 14//3 20//3 6//3
f 7//6 8//6 24//6 23//6
f 5//7 6//7 8//7 7//7
f 19//4 5//4 7//4 23//4
f 6//3 20//3 24//3 8//3
f 9//8 11//8 12//8 10//8
f 15//2 9//2 10//2 16//2
f 14//3 16//3 10//3 12//3
f 11//4 9//4 15//4 13//4
f 14//9 20//9 19//9 13//9
f 20//9 24//9 23//9 19//9
f 11//10 17//10 18//10 12//10
f 13//4 19//4 17//4 11//4
f 12//3 18//3 20//3 14//3
f 21//6 23//6 24//6 22//6
f 17//11 21//11 22//11 18//11
f 19//4 23//4 21//4 17//4
f 18//3 22//3 24//3 20//3
