# Blender v2.79 (sub 0) OBJ File: 'epipen.blend'
# www.blender.org
mtllib epipen.mtl
o Cylinder
v 0.000000 -1.900000 -0.271158
v -0.000000 1.862784 -0.426105
v 0.052900 -1.900000 -0.265947
v 0.083129 1.862784 -0.417917
v 0.103768 -1.900000 -0.250517
v 0.163063 1.862784 -0.393669
v 0.150647 -1.900000 -0.225459
v 0.236731 1.862784 -0.354293
v 0.191737 -1.900000 -0.191737
v 0.301301 1.862784 -0.301301
v 0.225459 -1.900000 -0.150647
v 0.354293 1.862784 -0.236731
v 0.250517 -1.900000 -0.103768
v 0.393669 1.862784 -0.163063
v 0.265947 -1.900000 -0.052900
v 0.417917 1.862784 -0.083129
v 0.271158 -1.900000 -0.000000
v 0.426105 1.862784 -0.000000
v 0.265947 -1.900000 0.052900
v 0.417917 1.862784 0.083129
v 0.250517 -1.900000 0.103767
v 0.393669 1.862784 0.163063
v 0.225459 -1.900000 0.150647
v 0.354293 1.862784 0.236731
v 0.191737 -1.900000 0.191737
v 0.301301 1.862784 0.301302
v 0.150647 -1.900000 0.225459
v 0.236731 1.862784 0.354293
v 0.103767 -1.900000 0.250517
v 0.163063 1.862784 0.393669
v 0.052900 -1.900000 0.265947
v 0.083129 1.862784 0.417917
v -0.000000 -1.900000 0.271157
v -0.000000 1.862784 0.426105
v -0.052900 -1.900000 0.265947
v -0.083129 1.862784 0.417917
v -0.103768 -1.900000 0.250517
v -0.163063 1.862784 0.393669
v -0.150647 -1.900000 0.225459
v -0.236731 1.862784 0.354293
v -0.191737 -1.900000 0.191737
v -0.301302 1.862784 0.301301
v -0.225459 -1.900000 0.150647
v -0.354293 1.862784 0.236731
v -0.250517 -1.900000 0.103767
v -0.393670 1.862784 0.163063
v -0.265947 -1.900000 0.052900
v -0.417917 1.862784 0.083129
v -0.271157 -1.900000 -0.000000
v -0.426105 1.862784 -0.000000
v -0.265947 -1.900000 -0.052901
v -0.417917 1.862784 -0.083129
v -0.250517 -1.900000 -0.103768
v -0.393669 1.862784 -0.163064
v -0.225459 -1.900000 -0.150647
v -0.354293 1.862784 -0.236731
v -0.191737 -1.900000 -0.191738
v -0.301301 1.862784 -0.301302
v -0.150647 -1.900000 -0.225459
v -0.236731 1.862784 -0.354293
v -0.103767 -1.900000 -0.250517
v -0.163063 1.862784 -0.393670
v -0.052900 -1.900000 -0.265947
v -0.083128 1.862784 -0.417917
v 0.000000 -1.140000 -0.387368
v 0.075572 -1.140000 -0.379925
v 0.148239 -1.140000 -0.357881
v 0.215210 -1.140000 -0.322085
v 0.273910 -1.140000 -0.273910
v 0.322085 -1.140000 -0.215210
v 0.357881 -1.140000 -0.148239
v 0.379925 -1.140000 -0.075572
v 0.387368 -1.140000 -0.000000
v 0.379925 -1.140000 0.075572
v 0.357881 -1.140000 0.148239
v 0.322085 -1.140000 0.215210
v 0.273910 -1.140000 0.273910
v 0.215210 -1.140000 0.322085
v 0.148239 -1.140000 0.357881
v 0.075572 -1.140000 0.379925
v -0.000000 -1.140000 0.387368
v -0.075572 -1.140000 0.379925
v -0.148239 -1.140000 0.357881
v -0.215210 -1.140000 0.322084
v -0.273911 -1.140000 0.273910
v -0.322085 -1.140000 0.215210
v -0.357881 -1.140000 0.148239
v -0.379925 -1.140000 0.075571
v -0.387368 -1.140000 -0.000000
v -0.379925 -1.140000 -0.075572
v -0.357881 -1.140000 -0.148240
v -0.322084 -1.140000 -0.215210
v -0.273910 -1.140000 -0.273911
v -0.215210 -1.140000 -0.322085
v -0.148239 -1.140000 -0.357881
v -0.075571 -1.140000 -0.379925
v -0.000000 1.193984 -0.426105
v 0.083129 1.193984 -0.417917
v 0.163063 1.193984 -0.393669
v 0.236731 1.193984 -0.354293
v 0.301301 1.193984 -0.301301
v 0.354293 1.193984 -0.236731
v 0.393669 1.193984 -0.163063
v 0.417917 1.193984 -0.083129
v 0.426105 1.193984 -0.000000
v 0.417917 1.193984 0.083129
v 0.393669 1.193984 0.163063
v 0.354293 1.193984 0.236731
v 0.301301 1.193984 0.301302
v 0.236731 1.193984 0.354293
v 0.163063 1.193984 0.393669
v 0.083129 1.193984 0.417917
v -0.000000 1.193984 0.426105
v -0.083129 1.193984 0.417917
v -0.163063 1.193984 0.393669
v -0.236731 1.193984 0.354293
v -0.301302 1.193984 0.301301
v -0.354293 1.193984 0.236731
v -0.393670 1.193984 0.163063
v -0.417917 1.193984 0.083129
v -0.426105 1.193984 -0.000000
v -0.417917 1.193984 -0.083129
v -0.393669 1.193984 -0.163064
v -0.354293 1.193984 -0.236731
v -0.301301 1.193984 -0.301302
v -0.236731 1.193984 -0.354293
v -0.163063 1.193984 -0.393670
v -0.083128 1.193984 -0.417917
v 0.075572 1.170400 -0.379925
v 0.148239 1.170400 -0.357881
v 0.215210 1.170400 -0.322085
v 0.273910 1.170400 -0.273910
v 0.322085 1.170400 -0.215210
v 0.357881 1.170400 -0.148239
v 0.379925 1.170400 -0.075572
v 0.387368 1.170400 -0.000000
v 0.379925 1.170400 0.075572
v 0.357881 1.170400 0.148239
v 0.322085 1.170400 0.215210
v 0.273910 1.170400 0.273910
v 0.215210 1.170400 0.322085
v 0.148239 1.170400 0.357881
v 0.075572 1.170400 0.379925
v -0.000000 1.170400 0.387368
v -0.075572 1.170400 0.379925
v -0.148239 1.170400 0.357881
v -0.215210 1.170400 0.322084
v -0.273911 1.170400 0.273910
v -0.322085 1.170400 0.215210
v -0.357881 1.170400 0.148239
v -0.379925 1.170400 0.075571
v -0.387368 1.170400 -0.000000
v -0.379925 1.170400 -0.075572
v -0.357881 1.170400 -0.148240
v -0.322084 1.170400 -0.215210
v -0.273910 1.170400 -0.273911
v -0.215210 1.170400 -0.322085
v -0.148239 1.170400 -0.357881
v -0.075571 1.170400 -0.379925
v 0.000000 1.170400 -0.387368
v 0.000000 -1.900000 -0.271158
v 0.052900 -1.900000 -0.265947
v 0.083129 1.862784 -0.417917
v -0.000000 1.862784 -0.426105
v 0.103768 -1.900000 -0.250517
v 0.163063 1.862784 -0.393669
v 0.150647 -1.900000 -0.225459
v 0.236731 1.862784 -0.354293
v 0.191737 -1.900000 -0.191737
v 0.301301 1.862784 -0.301301
v 0.225459 -1.900000 -0.150647
v 0.354293 1.862784 -0.236731
v 0.250517 -1.900000 -0.103768
v 0.393669 1.862784 -0.163063
v 0.265947 -1.900000 -0.052900
v 0.417917 1.862784 -0.083129
v 0.271158 -1.900000 -0.000000
v 0.426105 1.862784 -0.000000
v 0.265947 -1.900000 0.052900
v 0.417917 1.862784 0.083129
v 0.250517 -1.900000 0.103767
v 0.393669 1.862784 0.163063
v 0.225459 -1.900000 0.150647
v 0.354293 1.862784 0.236731
v 0.191737 -1.900000 0.191737
v 0.301301 1.862784 0.301302
v 0.150647 -1.900000 0.225459
v 0.236731 1.862784 0.354293
v 0.103767 -1.900000 0.250517
v 0.163063 1.862784 0.393669
v 0.052900 -1.900000 0.265947
v 0.083129 1.862784 0.417917
v -0.000000 -1.900000 0.271157
v -0.000000 1.862784 0.426105
v -0.052900 -1.900000 0.265947
v -0.083129 1.862784 0.417917
v -0.103768 -1.900000 0.250517
v -0.163063 1.862784 0.393669
v -0.150647 -1.900000 0.225459
v -0.236731 1.862784 0.354293
v -0.191737 -1.900000 0.191737
v -0.301302 1.862784 0.301301
v -0.225459 -1.900000 0.150647
v -0.354293 1.862784 0.236731
v -0.250517 -1.900000 0.103767
v -0.393670 1.862784 0.163063
v -0.265947 -1.900000 0.052900
v -0.417917 1.862784 0.083129
v -0.271157 -1.900000 -0.000000
v -0.426105 1.862784 -0.000000
v -0.265947 -1.900000 -0.052901
v -0.417917 1.862784 -0.083129
v -0.250517 -1.900000 -0.103768
v -0.393669 1.862784 -0.163064
v -0.225459 -1.900000 -0.150647
v -0.354293 1.862784 -0.236731
v -0.191737 -1.900000 -0.191738
v -0.301301 1.862784 -0.301302
v -0.150647 -1.900000 -0.225459
v -0.236731 1.862784 -0.354293
v -0.103767 -1.900000 -0.250517
v -0.163063 1.862784 -0.393670
v -0.052900 -1.900000 -0.265947
v -0.083128 1.862784 -0.417917
v -0.075571 -1.140000 -0.379925
v 0.000000 -1.140000 -0.387368
v -0.148239 -1.140000 -0.357881
v -0.215210 -1.140000 -0.322085
v -0.273910 -1.140000 -0.273911
v -0.322084 -1.140000 -0.215210
v -0.357881 -1.140000 -0.148240
v -0.379925 -1.140000 -0.075572
v -0.387368 -1.140000 -0.000000
v -0.379925 -1.140000 0.075571
v -0.357881 -1.140000 0.148239
v -0.322085 -1.140000 0.215210
v -0.273911 -1.140000 0.273910
v -0.215210 -1.140000 0.322084
v -0.148239 -1.140000 0.357881
v -0.075572 -1.140000 0.379925
v -0.000000 -1.140000 0.387368
v 0.075572 -1.140000 0.379925
v 0.148239 -1.140000 0.357881
v 0.215210 -1.140000 0.322085
v 0.273910 -1.140000 0.273910
v 0.322085 -1.140000 0.215210
v 0.357881 -1.140000 0.148239
v 0.379925 -1.140000 0.075572
v 0.387368 -1.140000 -0.000000
v 0.379925 -1.140000 -0.075572
v 0.357881 -1.140000 -0.148239
v 0.322085 -1.140000 -0.215210
v 0.273910 -1.140000 -0.273910
v 0.215210 -1.140000 -0.322085
v 0.148239 -1.140000 -0.357881
v 0.075572 -1.140000 -0.379925
v -0.083128 1.193984 -0.417917
v -0.000000 1.193984 -0.426105
v -0.163063 1.193984 -0.393670
v -0.236731 1.193984 -0.354293
v -0.301301 1.193984 -0.301302
v -0.354293 1.193984 -0.236731
v -0.393669 1.193984 -0.163064
v -0.417917 1.193984 -0.083129
v -0.426105 1.193984 -0.000000
v -0.417917 1.193984 0.083129
v -0.393670 1.193984 0.163063
v -0.354293 1.193984 0.236731
v -0.301302 1.193984 0.301301
v -0.236731 1.193984 0.354293
v -0.163063 1.193984 0.393669
v -0.083129 1.193984 0.417917
v -0.000000 1.193984 0.426105
v 0.083129 1.193984 0.417917
v 0.163063 1.193984 0.393669
v 0.236731 1.193984 0.354293
v 0.301301 1.193984 0.301302
v 0.354293 1.193984 0.236731
v 0.393669 1.193984 0.163063
v 0.417917 1.193984 0.083129
v 0.426105 1.193984 -0.000000
v 0.417917 1.193984 -0.083129
v 0.393669 1.193984 -0.163063
v 0.354293 1.193984 -0.236731
v 0.301301 1.193984 -0.301301
v 0.236731 1.193984 -0.354293
v 0.163063 1.193984 -0.393669
v 0.083129 1.193984 -0.417917
v 0.000000 1.170400 -0.387368
v 0.075572 1.170400 -0.379925
v 0.148239 1.170400 -0.357881
v 0.215210 1.170400 -0.322085
v 0.273910 1.170400 -0.273910
v 0.322085 1.170400 -0.215210
v 0.357881 1.170400 -0.148239
v 0.379925 1.170400 -0.075572
v 0.387368 1.170400 -0.000000
v 0.379925 1.170400 0.075572
v 0.357881 1.170400 0.148239
v 0.322085 1.170400 0.215210
v 0.273910 1.170400 0.273910
v 0.215210 1.170400 0.322085
v 0.148239 1.170400 0.357881
v 0.075572 1.170400 0.379925
v -0.000000 1.170400 0.387368
v -0.075572 1.170400 0.379925
v -0.148239 1.170400 0.357881
v -0.215210 1.170400 0.322084
v -0.273911 1.170400 0.273910
v -0.322085 1.170400 0.215210
v -0.357881 1.170400 0.148239
v -0.379925 1.170400 0.075571
v -0.387368 1.170400 -0.000000
v -0.379925 1.170400 -0.075572
v -0.357881 1.170400 -0.148240
v -0.322084 1.170400 -0.215210
v -0.273910 1.170400 -0.273911
v -0.215210 1.170400 -0.322085
v -0.148239 1.170400 -0.357881
v -0.075571 1.170400 -0.379925
vn -0.1014 -0.8542 -0.5100
vn 0.0000 -0.8542 -0.5200
vn -0.1990 -0.8542 -0.4804
vn -0.2889 -0.8542 -0.4324
vn -0.3677 -0.8542 -0.3677
vn -0.4324 -0.8542 -0.2889
vn -0.4804 -0.8542 -0.1990
vn -0.5100 -0.8542 -0.1014
vn -0.5200 -0.8542 0.0000
vn -0.5100 -0.8542 0.1014
vn -0.4804 -0.8542 0.1990
vn -0.4324 -0.8542 0.2889
vn -0.3677 -0.8542 0.3677
vn -0.2889 -0.8542 0.4324
vn -0.1990 -0.8542 0.4804
vn -0.1014 -0.8542 0.5100
vn 0.0000 -0.8542 0.5200
vn 0.1014 -0.8542 0.5100
vn 0.1990 -0.8542 0.4804
vn 0.2889 -0.8542 0.4324
vn 0.3677 -0.8542 0.3677
vn 0.4324 -0.8542 0.2889
vn 0.4804 -0.8542 0.1990
vn 0.5100 -0.8542 0.1014
vn 0.5200 -0.8542 0.0000
vn 0.5100 -0.8542 -0.1014
vn 0.4804 -0.8541 -0.1990
vn 0.4324 -0.8541 -0.2889
vn 0.3677 -0.8541 -0.3677
vn 0.2889 -0.8542 -0.4324
vn 0.1990 -0.8542 -0.4804
vn 0.1014 -0.8542 -0.5100
vn 0.0000 0.0000 -1.0000
vn 0.1951 0.0000 -0.9808
vn 0.3827 0.0000 -0.9239
vn 0.5556 0.0000 -0.8314
vn 0.7071 0.0000 -0.7071
vn 0.8314 0.0000 -0.5556
vn 0.9239 0.0000 -0.3827
vn 0.9808 0.0000 -0.1951
vn 1.0000 0.0000 0.0000
vn 0.9808 0.0000 0.1951
vn 0.9239 0.0000 0.3827
vn 0.8314 0.0000 0.5556
vn 0.7071 0.0000 0.7071
vn 0.5556 0.0000 0.8314
vn 0.3827 0.0000 0.9239
vn 0.1951 0.0000 0.9808
vn 0.0000 0.0000 1.0000
vn -0.1951 0.0000 0.9808
vn -0.3827 0.0000 0.9239
vn -0.5556 0.0000 0.8314
vn -0.7071 0.0000 0.7071
vn -0.8314 0.0000 0.5556
vn -0.9239 0.0000 0.3827
vn -0.9808 0.0000 0.1951
vn -1.0000 0.0000 0.0000
vn -0.9808 0.0000 -0.1951
vn -0.9239 0.0000 -0.3827
vn -0.8314 0.0000 -0.5556
vn -0.7071 0.0000 -0.7071
vn -0.5556 0.0000 -0.8314
vn -0.3827 0.0000 -0.9239
vn -0.1951 0.0000 -0.9808
vn 0.0000 -1.0000 0.0000
vn -0.1928 -0.1511 -0.9695
vn 0.0000 -0.1511 -0.9885
vn -0.3783 -0.1511 -0.9132
vn -0.5492 -0.1511 -0.8219
vn -0.6990 -0.1511 -0.6990
vn -0.8219 -0.1511 -0.5492
vn -0.9132 -0.1511 -0.3783
vn -0.9695 -0.1511 -0.1928
vn -0.9885 -0.1511 0.0000
vn -0.9695 -0.1511 0.1928
vn -0.9132 -0.1511 0.3783
vn -0.8219 -0.1511 0.5492
vn -0.6990 -0.1511 0.6990
vn -0.5492 -0.1511 0.8219
vn -0.3783 -0.1511 0.9132
vn -0.1928 -0.1511 0.9695
vn 0.0000 -0.1511 0.9885
vn 0.1928 -0.1511 0.9695
vn 0.3783 -0.1511 0.9132
vn 0.5492 -0.1511 0.8219
vn 0.6990 -0.1511 0.6990
vn 0.8219 -0.1511 0.5492
vn 0.9132 -0.1511 0.3783
vn 0.9695 -0.1511 0.1928
vn 0.9885 -0.1511 0.0000
vn 0.9695 -0.1511 -0.1928
vn 0.9132 -0.1511 -0.3783
vn 0.8219 -0.1511 -0.5492
vn 0.6990 -0.1511 -0.6990
vn 0.5492 -0.1511 -0.8219
vn 0.3783 -0.1511 -0.9132
vn 0.1928 -0.1511 -0.9695
vn 0.0000 1.0000 0.0000
usemtl Material.001
s 1
f 159//1 128//1 97//2 289//2
f 158//3 127//3 128//1 159//1
f 157//4 126//4 127//3 158//3
f 156//5 125//5 126//4 157//4
f 155//6 124//6 125//5 156//5
f 154//7 123//7 124//6 155//6
f 153//8 122//8 123//7 154//7
f 152//9 121//9 122//8 153//8
f 151//10 120//10 121//9 152//9
f 150//11 119//11 120//10 151//10
f 149//12 118//12 119//11 150//11
f 148//13 117//13 118//12 149//12
f 147//14 116//14 117//13 148//13
f 146//15 115//15 116//14 147//14
f 145//16 114//16 115//15 146//15
f 144//17 113//17 114//16 145//16
f 143//18 112//18 113//17 144//17
f 142//19 111//19 112//18 143//18
f 141//20 110//20 111//19 142//19
f 140//21 109//21 110//20 141//20
f 139//22 108//22 109//21 140//21
f 138//23 107//23 108//22 139//22
f 137//24 106//24 107//23 138//23
f 136//25 105//25 106//24 137//24
f 135//26 104//26 105//25 136//25
f 134//27 103//27 104//26 135//26
f 133//28 102//28 103//27 134//27
f 132//29 101//29 102//28 133//28
f 131//30 100//30 101//29 132//29
f 130//31 99//31 100//30 131//30
f 129//32 98//32 99//31 130//31
f 289//2 97//2 98//32 129//32
f 65//33 160//33 290//34 66//34
f 66//34 290//34 291//35 67//35
f 67//35 291//35 292//36 68//36
f 68//36 292//36 293//37 69//37
f 69//37 293//37 294//38 70//38
f 70//38 294//38 295//39 71//39
f 71//39 295//39 296//40 72//40
f 72//40 296//40 297//41 73//41
f 73//41 297//41 298//42 74//42
f 74//42 298//42 299//43 75//43
f 75//43 299//43 300//44 76//44
f 76//44 300//44 301//45 77//45
f 77//45 301//45 302//46 78//46
f 78//46 302//46 303//47 79//47
f 79//47 303//47 304//48 80//48
f 80//48 304//48 305//49 81//49
f 81//49 305//49 306//50 82//50
f 82//50 306//50 307//51 83//51
f 83//51 307//51 308//52 84//52
f 84//52 308//52 309//53 85//53
f 85//53 309//53 310//54 86//54
f 86//54 310//54 311//55 87//55
f 87//55 311//55 312//56 88//56
f 88//56 312//56 313//57 89//57
f 89//57 313//57 314//58 90//58
f 90//58 314//58 315//59 91//59
f 91//59 315//59 316//60 92//60
f 92//60 316//60 317//61 93//61
f 93//61 317//61 318//62 94//62
f 94//62 318//62 319//63 95//63
f 95//63 319//63 320//64 96//64
f 96//64 320//64 160//33 65//33
usemtl Material.002
f 161//65 162//65 165//65 167//65 169//65 171//65 173//65 175//65 177//65 179//65 181//65 183//65 185//65 187//65 189//65 191//65 193//65 195//65 197//65 199//65 201//65 203//65 205//65 207//65 209//65 211//65 213//65 215//65 217//65 219//65 221//65 223//65
f 63//66 225//66 226//67 1//67
f 61//68 227//68 225//66 63//66
f 59//69 228//69 227//68 61//68
f 57//70 229//70 228//69 59//69
f 55//71 230//71 229//70 57//70
f 53//72 231//72 230//71 55//71
f 51//73 232//73 231//72 53//72
f 49//74 233//74 232//73 51//73
f 47//75 234//75 233//74 49//74
f 45//76 235//76 234//75 47//75
f 43//77 236//77 235//76 45//76
f 41//78 237//78 236//77 43//77
f 39//79 238//79 237//78 41//78
f 37//80 239//80 238//79 39//79
f 35//81 240//81 239//80 37//80
f 33//82 241//82 240//81 35//81
f 31//83 242//83 241//82 33//82
f 29//84 243//84 242//83 31//83
f 27//85 244//85 243//84 29//84
f 25//86 245//86 244//85 27//85
f 23//87 246//87 245//86 25//86
f 21//88 247//88 246//87 23//87
f 19//89 248//89 247//88 21//88
f 17//90 249//90 248//89 19//89
f 15//91 250//91 249//90 17//90
f 13//92 251//92 250//91 15//91
f 11//93 252//93 251//92 13//92
f 9//94 253//94 252//93 11//93
f 7//95 254//95 253//94 9//94
f 5//96 255//96 254//95 7//95
f 3//97 256//97 255//96 5//96
f 1//67 226//67 256//97 3//97
usemtl Material.003
f 258//33 164//33 163//34 288//34
f 288//34 163//34 166//35 287//35
f 287//35 166//35 168//36 286//36
f 286//36 168//36 170//37 285//37
f 285//37 170//37 172//38 284//38
f 284//38 172//38 174//39 283//39
f 283//39 174//39 176//40 282//40
f 282//40 176//40 178//41 281//41
f 281//41 178//41 180//42 280//42
f 280//42 180//42 182//43 279//43
f 279//43 182//43 184//44 278//44
f 278//44 184//44 186//45 277//45
f 277//45 186//45 188//46 276//46
f 276//46 188//46 190//47 275//47
f 275//47 190//47 192//48 274//48
f 274//48 192//48 194//49 273//49
f 273//49 194//49 196//50 272//50
f 272//50 196//50 198//51 271//51
f 271//51 198//51 200//52 270//52
f 270//52 200//52 202//53 269//53
f 269//53 202//53 204//54 268//54
f 268//54 204//54 206//55 267//55
f 267//55 206//55 208//56 266//56
f 266//56 208//56 210//57 265//57
f 265//57 210//57 212//58 264//58
f 264//58 212//58 214//59 263//59
f 263//59 214//59 216//60 262//60
f 262//60 216//60 218//61 261//61
f 261//61 218//61 220//62 260//62
f 260//62 220//62 222//63 259//63
f 4//98 2//98 224//98 62//98 60//98 58//98 56//98 54//98 52//98 50//98 48//98 46//98 44//98 42//98 40//98 38//98 36//98 34//98 32//98 30//98 28//98 26//98 24//98 22//98 20//98 18//98 16//98 14//98 12//98 10//98 8//98 6//98
f 259//63 222//63 64//64 257//64
f 257//64 64//64 164//33 258//33
